<svg width="59" height="59" viewBox="0 0 59 59" fill="none" xmlns="http://www.w3.org/2000/svg">
<rect width="59" height="59" fill="#02050A"/>
<path fill-rule="evenodd" clip-rule="evenodd" d="M15.5861 16.5619C15.5861 14.5431 18.0269 13.5321 19.4544 14.9596L23.2949 18.8002C25.0948 15.4899 28.6031 13.243 32.636 13.243C38.5043 13.243 43.2615 18.0002 43.2615 23.8685V41.9944C43.2615 44.0132 40.8207 45.0242 39.3932 43.5967L35.5412 39.7447C33.7379 43.0434 30.2361 45.2808 26.2117 45.2808C20.3434 45.2808 15.5862 40.5236 15.5862 34.6553L15.5861 16.5619ZM30.6808 34.8843C30.5616 37.2493 28.6063 39.1302 26.2117 39.1302C23.7402 39.1302 21.7368 37.1267 21.7368 34.6553V25.9403L30.6808 34.8843ZM37.1109 32.6161L28.1655 23.6707C28.269 21.2911 30.2309 19.3936 32.636 19.3936C35.1075 19.3936 37.1109 21.3971 37.1109 23.8685V32.6161Z" fill="url(#paint0_angular_310_6208)"/>
<path fill-rule="evenodd" clip-rule="evenodd" d="M43.2542 41.9708C43.2542 43.9896 40.8134 45.0006 39.3859 43.5731L35.5453 39.7326C33.7454 43.0428 30.2372 45.2897 26.2042 45.2897C20.3359 45.2897 15.5787 40.5325 15.5787 34.6642V16.5383C15.5787 14.5195 18.0196 13.5085 19.4471 14.936L23.299 18.788C25.1023 15.4893 28.6042 13.252 32.6286 13.252C38.4969 13.252 43.2541 18.0091 43.2541 23.8774L43.2542 41.9708ZM28.1595 23.6485C28.2787 21.2835 30.234 19.4026 32.6286 19.4026C35.1 19.4026 37.1035 21.406 37.1035 23.8774V32.5925L28.1595 23.6485ZM21.7293 25.9166L30.6748 34.862C30.5713 37.2417 28.6093 39.1391 26.2042 39.1391C23.7328 39.1391 21.7293 37.1356 21.7293 34.6642V25.9166Z" fill="url(#paint1_angular_310_6208)"/>
<path d="M15.5861 16.5621C15.5861 14.5433 18.0269 13.5323 19.4544 14.9598L23.2949 18.8004L28.1655 23.6709L37.1109 32.6164L43.2615 38.8008V41.9946C43.2615 44.0134 40.8207 45.0244 39.3932 43.5969L35.5412 39.7449L30.6808 34.8845L21.7368 25.9405L15.5861 19.3938L15.5861 16.5621Z" fill="url(#paint2_linear_310_6208)"/>
<path d="M7.90312 12.0316C7.90312 12.0038 7.86956 11.9899 7.84993 12.0095C7.83776 12.0217 7.83776 12.0414 7.84993 12.0536C7.86956 12.0732 7.90312 12.0593 7.90312 12.0316Z" fill="url(#paint3_linear_310_6208)"/>
<rect x="21.9973" y="17.4951" width="2.77621" height="10.6065" transform="rotate(-45 21.9973 17.4951)" fill="#050518"/>
<rect x="27.6552" y="35.7974" width="2.77621" height="10.6065" transform="rotate(-45 27.6552 35.7974)" fill="#050518"/>
<defs>
<radialGradient id="paint0_angular_310_6208" cx="0" cy="0" r="1" gradientUnits="userSpaceOnUse" gradientTransform="translate(27.1315 31.8061) rotate(43.3411) scale(22.1786 22.9835)">
<stop offset="0.0153581" stop-color="white" stop-opacity="0"/>
<stop offset="0.0280824" stop-color="#7262FF"/>
<stop offset="0.122754" stop-color="#60FFD9"/>
<stop offset="0.240163" stop-color="#48B2FF"/>
<stop offset="0.366826" stop-color="#9BFFFF"/>
<stop offset="0.426053" stop-color="#16D5FF"/>
<stop offset="0.512467" stop-color="#5566FF"/>
<stop offset="0.526573" stop-color="white" stop-opacity="0"/>
</radialGradient>
<radialGradient id="paint1_angular_310_6208" cx="0" cy="0" r="1" gradientUnits="userSpaceOnUse" gradientTransform="translate(31.0936 26.8251) rotate(-135.361) scale(21.8044 22.5958)">
<stop offset="0.0153581" stop-color="white" stop-opacity="0"/>
<stop offset="0.0280824" stop-color="#7262FF"/>
<stop offset="0.122754" stop-color="#60FFD9"/>
<stop offset="0.240163" stop-color="#48B2FF"/>
<stop offset="0.366826" stop-color="#9BFFFF"/>
<stop offset="0.499766" stop-color="#2BCCFF"/>
<stop offset="0.507937" stop-color="#A3D8FF"/>
<stop offset="0.510531" stop-color="white" stop-opacity="0"/>
</radialGradient>
<linearGradient id="paint2_linear_310_6208" x1="43.7092" y1="43.2458" x2="15.9615" y2="15.498" gradientUnits="userSpaceOnUse">
<stop stop-color="#1BF2FF"/>
<stop offset="0.232078" stop-color="#B1FFE3"/>
<stop offset="0.328303" stop-color="#6AFBEC"/>
<stop offset="0.563872" stop-color="#8CEAFF"/>
<stop offset="0.745803" stop-color="#7DEFFF"/>
<stop offset="1" stop-color="#725BFF"/>
</linearGradient>
<linearGradient id="paint3_linear_310_6208" x1="43.7092" y1="43.2458" x2="15.9615" y2="15.498" gradientUnits="userSpaceOnUse">
<stop stop-color="#1BF2FF"/>
<stop offset="0.232078" stop-color="#B1FFE3"/>
<stop offset="0.328303" stop-color="#6AFBEC"/>
<stop offset="0.563872" stop-color="#8CEAFF"/>
<stop offset="0.745803" stop-color="#7DEFFF"/>
<stop offset="1" stop-color="#725BFF"/>
</linearGradient>
</defs>
</svg>
