<svg width="20" height="16" viewBox="0 0 20 16" fill="none" xmlns="http://www.w3.org/2000/svg">
<path d="M16.4837 2.07317C15.3088 1.50571 14.0489 1.08763 12.7316 0.848172C12.7076 0.843551 12.6837 0.8551 12.6713 0.878199C12.5093 1.18156 12.3298 1.57731 12.2041 1.88837C10.7873 1.66509 9.3777 1.66509 7.98991 1.88837C7.8642 1.5704 7.6782 1.18156 7.51544 0.878199C7.50308 0.855871 7.47912 0.844322 7.45513 0.848172C6.13856 1.08686 4.87866 1.50494 3.70304 2.07317C3.69286 2.07779 3.68414 2.0855 3.67835 2.0955C1.28859 5.85366 0.633931 9.51944 0.955083 13.1398C0.956536 13.1575 0.965982 13.1744 0.979061 13.1852C2.55576 14.404 4.08305 15.144 5.58199 15.6344C5.60598 15.6421 5.6314 15.6329 5.64666 15.6121C6.00124 15.1024 6.31731 14.565 6.58831 13.9998C6.6043 13.9667 6.58904 13.9274 6.55635 13.9143C6.05501 13.7142 5.57763 13.4701 5.11843 13.1929C5.0821 13.1706 5.0792 13.1159 5.11261 13.0897C5.20924 13.0135 5.3059 12.9342 5.39817 12.8541C5.41487 12.8395 5.43813 12.8364 5.45776 12.8456C8.47453 14.2955 11.7406 14.2955 14.7217 12.8456C14.7414 12.8356 14.7646 12.8387 14.782 12.8533C14.8743 12.9334 14.971 13.0135 15.0683 13.0897C15.1017 13.1159 15.0996 13.1706 15.0632 13.1929C14.604 13.4755 14.1267 13.7142 13.6246 13.9136C13.5919 13.9267 13.5774 13.9667 13.5934 13.9998C13.8702 14.5642 14.1862 15.1016 14.5343 15.6113C14.5488 15.6329 14.575 15.6421 14.599 15.6344C16.1052 15.144 17.6324 14.404 19.2091 13.1852C19.223 13.1744 19.2317 13.1583 19.2331 13.1405C19.6175 8.95504 18.5894 5.31932 16.5077 2.09627C16.5026 2.0855 16.4939 2.07779 16.4837 2.07317ZM7.03882 10.9354C6.13056 10.9354 5.38218 10.0576 5.38218 8.97969C5.38218 7.90174 6.11605 7.02401 7.03882 7.02401C7.96883 7.02401 8.70996 7.90945 8.69543 8.97969C8.69543 10.0576 7.96156 10.9354 7.03882 10.9354ZM13.1639 10.9354C12.2557 10.9354 11.5073 10.0576 11.5073 8.97969C11.5073 7.90174 12.2412 7.02401 13.1639 7.02401C14.094 7.02401 14.8351 7.90945 14.8206 8.97969C14.8206 10.0576 14.094 10.9354 13.1639 10.9354Z" fill="#8A9CB3"/>
</svg>
