<svg width="20" height="17" viewBox="0 0 20 17" fill="none" xmlns="http://www.w3.org/2000/svg">
<path d="M16.6546 2.12452C15.4436 1.53962 14.145 1.10869 12.7872 0.861875C12.7625 0.857112 12.7378 0.869016 12.7251 0.892824C12.5581 1.2055 12.3731 1.61342 12.2435 1.93404C10.7831 1.7039 9.33025 1.7039 7.89982 1.93404C7.77024 1.60629 7.57853 1.2055 7.41077 0.892824C7.39803 0.86981 7.37333 0.857906 7.3486 0.861875C5.99157 1.1079 4.69296 1.53883 3.48122 2.12452C3.47073 2.12928 3.46174 2.13722 3.45577 2.14753C0.992581 6.02116 0.31781 9.79959 0.64883 13.5312C0.650328 13.5494 0.660064 13.5669 0.673544 13.578C2.29869 14.8343 3.87291 15.5969 5.41791 16.1025C5.44264 16.1104 5.46883 16.1009 5.48457 16.0794C5.85004 15.5541 6.17582 15.0002 6.45515 14.4176C6.47163 14.3835 6.4559 14.343 6.42221 14.3295C5.90546 14.1232 5.41341 13.8716 4.9401 13.5859C4.90266 13.5629 4.89966 13.5065 4.9341 13.4796C5.03371 13.401 5.13334 13.3192 5.22844 13.2367C5.24565 13.2216 5.26963 13.2185 5.28986 13.228C8.39933 14.7224 11.7657 14.7224 14.8385 13.228C14.8587 13.2177 14.8827 13.2209 14.9006 13.2359C14.9958 13.3185 15.0954 13.401 15.1957 13.4796C15.2302 13.5065 15.2279 13.5629 15.1905 13.5859C14.7172 13.8772 14.2251 14.1232 13.7076 14.3287C13.6739 14.3422 13.659 14.3835 13.6754 14.4176C13.9608 14.9993 14.2865 15.5533 14.6453 16.0787C14.6603 16.1009 14.6872 16.1104 14.7119 16.1025C16.2644 15.5969 17.8386 14.8343 19.4638 13.578C19.478 13.5669 19.487 13.5502 19.4885 13.532C19.8847 9.21784 18.825 5.4704 16.6793 2.14832C16.6741 2.13722 16.6651 2.12928 16.6546 2.12452ZM6.9195 11.259C5.98333 11.259 5.21196 10.3543 5.21196 9.24325C5.21196 8.13218 5.96837 7.22747 6.9195 7.22747C7.87809 7.22747 8.64199 8.14012 8.62701 9.24325C8.62701 10.3543 7.87059 11.259 6.9195 11.259ZM13.2328 11.259C12.2967 11.259 11.5253 10.3543 11.5253 9.24325C11.5253 8.13218 12.2817 7.22747 13.2328 7.22747C14.1914 7.22747 14.9553 8.14012 14.9404 9.24325C14.9404 10.3543 14.1914 11.259 13.2328 11.259Z" fill="white"/>
</svg>
