<svg width="21" height="21" viewBox="0 0 21 21" fill="none" xmlns="http://www.w3.org/2000/svg">
<g clip-path="url(#clip0_78_1525)">
<path d="M11.5954 10.5179C11.5954 13.6601 9.06999 16.2074 5.95491 16.2074C2.83982 16.2074 0.314209 13.6596 0.314209 10.5179C0.314209 7.37619 2.83963 4.82812 5.95491 4.82812C9.07019 4.82812 11.5954 7.37561 11.5954 10.5179Z" fill="white"/>
<path d="M17.7833 10.5181C17.7833 13.4758 16.5206 15.8745 14.9629 15.8745C13.4053 15.8745 12.1426 13.4758 12.1426 10.5181C12.1426 7.56032 13.4051 5.16162 14.9627 5.16162C16.5204 5.16162 17.7831 7.55955 17.7831 10.5181" fill="white"/>
<path d="M20.3142 10.5183C20.3142 13.1677 19.8702 15.3168 19.3223 15.3168C18.7744 15.3168 18.3306 13.1683 18.3306 10.5183C18.3306 7.86826 18.7746 5.71973 19.3223 5.71973C19.87 5.71973 20.3142 7.86807 20.3142 10.5183Z" fill="white"/>
</g>
<defs>
<clipPath id="clip0_78_1525">
<rect width="20" height="20" fill="white" transform="translate(0.314209 0.661621)"/>
</clipPath>
</defs>
</svg>
