<svg width="11" height="10" viewBox="0 0 11 10" fill="none" xmlns="http://www.w3.org/2000/svg">
<path d="M4.90639 0.550356C5.21017 -0.00299466 6.00516 -0.00299388 6.30894 0.550357L7.28831 2.33434C7.40321 2.54363 7.60559 2.69067 7.84015 2.73527L9.83946 3.11543C10.4596 3.23334 10.7053 3.98942 10.2729 4.44933L8.87885 5.93205C8.7153 6.106 8.638 6.34391 8.66806 6.58077L8.92433 8.5997C9.00382 9.22593 8.36066 9.69321 7.78965 9.4241L5.94872 8.55649C5.73274 8.4547 5.48259 8.4547 5.26661 8.55649L3.42569 9.4241C2.85467 9.69321 2.21151 9.22593 2.291 8.5997L2.54727 6.58077C2.57733 6.34391 2.50003 6.106 2.33649 5.93205L0.942463 4.44933C0.510068 3.98942 0.755734 3.23334 1.37588 3.11543L3.37518 2.73527C3.60974 2.69067 3.81212 2.54363 3.92702 2.33434L4.90639 0.550356Z" fill="#007FFF"/>
</svg>
