<svg xmlns="http://www.w3.org/2000/svg" width="27.5" height="40" viewBox="0 0 27.5 40">
  <path id="Path_1" data-name="Path 1" d="M1.861,33.054a13.648,13.648,0,0,0,23.778,0,13.89,13.89,0,0,0,0-13.891L15.182.837a1.644,1.644,0,0,0-2.865,0L1.861,19.163a13.89,13.89,0,0,0,0,13.891ZM10.8,9.556l2.229-3.908a.822.822,0,0,1,1.432,0L23.043,20.68a10.843,10.843,0,0,1,.887,8.883,9.425,9.425,0,0,0-.439-1.459c-1.185-3.025-3.863-5.36-7.963-6.939-2.819-1.082-4.618-2.673-5.349-4.73C9.238,13.785,10.221,10.894,10.8,9.556ZM7,16.218,4.457,20.68a10.857,10.857,0,0,0,0,10.858,10.678,10.678,0,0,0,16.157,2.935,7.506,7.506,0,0,0,.067-5.291c-.87-2.186-2.965-3.931-6.225-5.188-3.686-1.415-6.08-3.623-7.116-6.562A9.3,9.3,0,0,1,7,16.218Z" transform="translate(0 0)" fill="#6fbcf0" fill-rule="evenodd"/>
</svg>
