<svg width="20" height="17" viewBox="0 0 20 17" fill="none" xmlns="http://www.w3.org/2000/svg">
<path d="M6.6757 16.4982C13.878 16.4982 17.8185 10.5297 17.8185 5.35542C17.8185 5.18763 17.8147 5.01611 17.8073 4.84832C18.5738 4.29397 19.2353 3.60733 19.7607 2.82066C19.0468 3.13829 18.2889 3.34573 17.5127 3.43589C18.33 2.94603 18.9419 2.17649 19.235 1.26991C18.4662 1.72553 17.6254 2.04694 16.7487 2.22035C16.158 1.59269 15.377 1.17712 14.5264 1.03786C13.6758 0.898604 12.8031 1.04343 12.0431 1.44994C11.2831 1.85645 10.6781 2.50201 10.3218 3.28681C9.96548 4.0716 9.87761 4.95193 10.0718 5.79167C8.51505 5.71355 6.99212 5.30915 5.6017 4.6047C4.21129 3.90024 2.98444 2.91145 2.00069 1.70243C1.50069 2.56448 1.34769 3.58457 1.57278 4.55538C1.79788 5.52618 2.38417 6.37486 3.21251 6.92892C2.59064 6.90917 1.9824 6.74174 1.43803 6.44046V6.48893C1.43747 7.39359 1.75022 8.27052 2.32312 8.97067C2.89601 9.67081 3.69369 10.151 4.58056 10.3295C4.0045 10.4871 3.39989 10.51 2.81354 10.3966C3.0638 11.1746 3.55071 11.8551 4.20631 12.343C4.86192 12.831 5.65352 13.1021 6.47062 13.1185C5.08342 14.2082 3.36982 14.7992 1.60582 14.7964C1.29299 14.7959 0.980465 14.7768 0.669922 14.739C2.46196 15.8887 4.54658 16.4993 6.6757 16.4982Z" fill="#8A9CB3"/>
</svg>
