<svg width="21" height="17" viewBox="0 0 21 17" fill="none" xmlns="http://www.w3.org/2000/svg">
<path d="M7.11797 16.7867C14.6633 16.7867 18.7914 10.534 18.7914 5.11329C18.7914 4.93751 18.7875 4.75782 18.7797 4.58204C19.5827 4.00129 20.2757 3.28196 20.8262 2.45782C20.0783 2.79058 19.2842 3.00789 18.4711 3.10236C19.3272 2.58917 19.9683 1.78297 20.2754 0.833216C19.47 1.31054 18.5892 1.64725 17.6707 1.82892C17.0519 1.17138 16.2337 0.736007 15.3426 0.590119C14.4515 0.444231 13.5372 0.595952 12.741 1.02182C11.9447 1.4477 11.311 2.124 10.9377 2.94617C10.5644 3.76834 10.4724 4.69059 10.6758 5.57032C9.04492 5.48849 7.44945 5.06483 5.99282 4.32683C4.53619 3.58882 3.25092 2.55294 2.22031 1.28634C1.6965 2.18945 1.53622 3.25811 1.77203 4.27515C2.00784 5.29219 2.62206 6.18128 3.48984 6.76173C2.83836 6.74105 2.20115 6.56564 1.63086 6.25001V6.30079C1.63028 7.24853 1.95792 8.16723 2.5581 8.90072C3.15827 9.6342 3.99394 10.1372 4.92305 10.3242C4.31955 10.4894 3.68616 10.5134 3.07187 10.3945C3.33405 11.2096 3.84415 11.9225 4.53098 12.4337C5.21781 12.9449 6.04711 13.2289 6.90313 13.2461C5.44986 14.3877 3.65465 15.0068 1.80664 15.0039C1.47891 15.0034 1.1515 14.9833 0.826172 14.9438C2.70355 16.1482 4.88745 16.7879 7.11797 16.7867Z" fill="white"/>
</svg>
